PathFileType	4	(X/Y/Z)	C:/Users/opensim2020/Desktop/walking_exp_matlab/subject01_walking07_straight_03.trc	
DataRate	CameraRate	NumFrames	NumMarkers	Units	OrigDataRate	OrigDataStartFrame	OrigNumFrames	
100.00	100.00	4	43	mm	100.00	2146	220	
Frame#	Time	LFHD			RFHD			LBHD			RBHD			C7			T10			CLAV			STRN			RBAK			LSHO			LUPA			LELB			LFRM			LWRA			LWRB			LFIN			RSHO			RUPA			RELB			RFRM			RWRA			RWRB			RFIN			LASI			RASI			LPSI			RPSI			LTHI			LKNE			LTIB			LANK			LHEE			LTOE			RTHI			RKNE			RTIB			RANK			RHEE			RTOE			*39			*40			*41			*42			
		X1	Y1	Z1	X2	Y2	Z2	X3	Y3	Z3	X4	Y4	Z4	X5	Y5	Z5	X6	Y6	Z6	X7	Y7	Z7	X8	Y8	Z8	X9	Y9	Z9	X10	Y10	Z10	X11	Y11	Z11	X12	Y12	Z12	X13	Y13	Z13	X14	Y14	Z14	X15	Y15	Z15	X16	Y16	Z16	X17	Y17	Z17	X18	Y18	Z18	X19	Y19	Z19	X20	Y20	Z20	X21	Y21	Z21	X22	Y22	Z22	X23	Y23	Z23	X24	Y24	Z24	X25	Y25	Z25	X26	Y26	Z26	X27	Y27	Z27	X28	Y28	Z28	X29	Y29	Z29	X30	Y30	Z30	X31	Y31	Z31	X32	Y32	Z32	X33	Y33	Z33	X34	Y34	Z34	X35	Y35	Z35	X36	Y36	Z36	X37	Y37	Z37	X38	Y38	Z38	X39	Y39	Z39	X40	Y40	Z40	X41	Y41	Z41	X42	Y42	Z42	X43	Y43	Z43	

111	1.100	1393.25964	13.11568	1662.10974	1498.94116	55.53697	1671.93860	1433.79407	-96.15622	1615.72742	1546.19128	-54.10893	1625.26868	1473.63757	-121.43455	1425.79126	1484.61963	-162.10773	1134.17371	1458.72107	20.92108	1356.88843	1455.58093	60.53875	1200.56396	1561.46265	-169.97231	1236.21399	1304.22327	-52.52489	1384.64026	1230.18738	-113.39605	1202.20557	1241.32922	-153.53673	1060.10767	1218.48279	-151.36084	946.87531	1238.94861	-112.48785	812.40308	1214.99158	-166.53288	825.10492	1210.37378	-144.26826	741.86267	1614.90820	-23.29503	1390.47351	1729.34619	-44.99355	1193.44788	1739.12183	-21.42228	1068.62915	1764.57983	49.15391	967.67163	1734.18738	163.72406	889.21606	1777.89819	127.58591	874.49164	1772.28113	191.72537	819.34845	1368.57886	7.05020	930.91925	1586.31897	8.30336	924.11627	1419.62683	-179.00954	937.75793	1563.44250	-178.06958	941.85992	1289.12805	42.53625	611.11462	1307.98511	75.67177	482.86139	1289.41858	81.18320	299.41357	1329.26990	136.28119	80.76508	1385.97107	107.37768	38.29781	1314.72900	282.21176	83.46165	1630.68994	-92.52950	595.74902	1601.64026	-112.39824	437.29379	1605.88318	-196.93895	281.77075	1552.57312	-262.72443	86.52839	1504.13477	-319.14963	57.51289	1548.61035	-129.48372	33.42575	1479.86194	37.58144	1705.00476	-3101.92407	1973.15955	1023.32831	-3140.71289	2012.56665	1022.09998			 
112	1.110	1391.41724	22.52801	1661.12720	1497.14246	65.02898	1670.89600	1431.96606	-86.96547	1615.06067	1544.33838	-44.74413	1624.39478	1471.55847	-112.33105	1424.80627	1482.52148	-152.82184	1133.13379	1456.99988	30.15086	1356.02466	1454.14734	69.84341	1199.75854	1559.32703	-161.01440	1235.32324	1302.32349	-42.99385	1383.64490	1228.40564	-104.07006	1201.24658	1239.84167	-144.63116	1059.24475	1217.23425	-143.07996	946.04492	1237.82739	-104.95016	811.43121	1213.90222	-158.91615	824.38513	1209.52026	-137.23070	740.93188	1613.04834	-14.43863	1389.71851	1727.79236	-35.38968	1192.97473	1737.85010	-11.50604	1068.14819	1763.23022	59.89339	967.70947	1732.58435	174.94475	890.09491	1776.40515	139.26341	875.19379	1770.69470	203.63945	820.53625	1367.91394	17.16524	929.53577	1585.66223	17.65330	923.46820	1417.62769	-169.01604	936.71997	1561.45288	-168.81189	941.25861	1287.41406	51.76905	609.97827	1306.86194	84.90966	481.84998	1288.53467	94.30048	298.52881	1328.56519	153.95903	81.06079	1384.84851	125.57238	38.44088	1315.19153	300.27112	86.79640	1630.30884	-85.85478	595.80737	1601.40149	-107.03531	437.27280	1605.78137	-193.53682	283.03680	1552.86072	-261.86096	88.18553	1504.50586	-318.31851	59.53521	1548.71997	-129.34494	33.37966	1478.05334	47.13927	1704.00439	-3101.97607	1973.15466	1023.43982	-3140.58350	2012.53906	1022.06738			 
113	1.120	1389.53357	32.04861	1660.20496	1495.24854	74.50361	1669.87476	1430.03552	-77.57631	1614.38928	1542.43030	-35.36582	1623.59583	1469.34631	-103.24886	1423.86536	1480.33923	-143.35110	1132.08899	1455.16663	39.42231	1355.24219	1452.65405	79.23045	1199.02710	1556.98633	-152.11380	1234.43225	1300.30042	-33.45627	1382.66406	1226.49573	-94.57426	1200.21631	1238.26489	-135.55887	1058.43896	1215.81543	-134.37959	945.20990	1236.63940	-96.95142	810.46460	1212.64197	-150.79903	823.59497	1208.58020	-129.59734	740.02417	1611.11646	-5.68620	1388.99292	1725.95630	-26.07447	1192.46606	1736.40625	-1.79746	1067.68213	1761.71399	70.25160	967.64899	1730.96289	185.74762	890.80927	1774.83875	150.31613	875.68658	1769.06531	214.99913	821.46954	1367.14038	27.63484	928.38947	1585.16345	26.48265	922.54004	1415.55115	-158.92036	935.75104	1559.28162	-159.36861	940.45215	1286.30737	62.07293	609.11761	1305.95093	94.56594	480.78033	1287.90222	106.41513	297.63248	1328.21985	169.44238	81.31155	1384.48462	141.75336	38.10892	1315.29065	315.89664	88.95950	1629.83618	-78.94704	595.82385	1601.18079	-101.23483	437.23062	1605.48926	-189.92265	284.00317	1553.16248	-260.91556	90.03881	1504.98340	-317.74866	62.07574	1548.81055	-129.23122	33.33285	1476.24805	56.67580	1703.03564	-3102.07910	1973.10425	1023.39557	-3140.66089	2012.55078	1021.99487			 
114	1.130	1387.57275	41.65586	1659.36658	1493.33655	83.97338	1668.86951	1427.99133	-68.19952	1613.69885	1540.38440	-26.07063	1622.79236	1467.02686	-94.15200	1422.89697	1478.19739	-133.79796	1131.07080	1453.23914	48.74152	1354.50073	1451.04077	88.73790	1198.37170	1554.49585	-143.01064	1233.47119	1298.18127	-23.93154	1381.67053	1224.39880	-84.89042	1199.29993	1236.45203	-126.15635	1057.53394	1214.19604	-125.31728	944.24554	1235.13354	-88.30251	809.35022	1211.24524	-142.12727	822.66852	1207.60486	-121.39457	739.07404	1609.06848	3.07044	1388.33618	1724.01025	-16.98691	1191.96118	1734.85449	7.71646	1067.27185	1760.16138	80.31747	967.59656	1729.29138	196.21300	891.35400	1773.21204	160.89711	876.09839	1767.53601	225.95366	822.38354	1366.28540	38.11246	927.27899	1584.31299	35.86892	921.84497	1413.54028	-148.72166	934.84033	1557.13965	-149.75017	939.91510	1285.91919	73.28304	608.54028	1305.28284	104.70674	479.74936	1287.48926	117.74567	296.77603	1327.98413	182.73596	80.79891	1384.17883	155.19122	37.47903	1315.28479	329.15051	89.77452	1629.22424	-71.60085	595.62207	1600.92236	-95.05736	437.01376	1605.38379	-185.90306	285.13931	1553.70178	-259.66696	92.07500	1505.44055	-317.32938	65.51656	1548.99597	-129.06866	33.31890	1474.32239	66.20152	1702.08765	-3101.79688	1973.15442	1023.63354	-3140.68140	2012.60864	1022.05481			 
